<svg width="34" height="34" viewBox="0 0 34 34" fill="none" xmlns="http://www.w3.org/2000/svg">
<path d="M22.9427 24.0425L22.765 14.4038C22.7651 14.3482 22.7879 14.2949 22.8285 14.2557L29.0636 7.99242C29.0931 7.96139 29.1314 7.9397 29.1737 7.9302C29.216 7.92069 29.2603 7.92381 29.3008 7.93913C29.3412 7.95446 29.376 7.98129 29.4005 8.01611C29.425 8.05094 29.4382 8.09214 29.4382 8.13434L29.6033 30.6513C29.6033 30.707 29.5806 30.7603 29.5401 30.7997C29.4996 30.839 29.4447 30.8611 29.3874 30.8611L6.58018 30.9599C6.53702 30.961 6.4945 30.9496 6.4581 30.927C6.42171 30.9044 6.39312 30.8717 6.37603 30.8332C6.35894 30.7947 6.35413 30.752 6.36223 30.7108C6.37032 30.6696 6.39095 30.6317 6.42145 30.602L12.6757 24.3202C12.716 24.2808 12.7709 24.2586 12.8281 24.2585H22.7269C22.7558 24.2585 22.7844 24.2528 22.811 24.2419C22.8376 24.231 22.8617 24.215 22.8818 24.1948C22.9019 24.1747 22.9177 24.1508 22.9282 24.1247C22.9386 24.0985 22.9436 24.0706 22.9427 24.0425Z" fill="white"/>
<path d="M9.32274 11.6889V21.0499C9.32274 21.2474 9.25078 21.4181 9.10686 21.5621L3.05582 27.6217C3.01615 27.6624 2.985 27.7101 2.96416 27.7622C2.94332 27.8144 2.9332 27.8698 2.93438 27.9254C2.93556 27.981 2.94802 28.0357 2.97104 28.0863C2.99405 28.1369 3.02718 28.1824 3.06852 28.2203L5.86863 30.8182C5.99985 30.9375 5.98504 31.0403 5.82419 31.1267L0.408094 33.9653C0.356456 33.9938 0.296639 34.0052 0.23772 33.9978C0.178801 33.9903 0.123997 33.9644 0.0816248 33.9239C0.0392526 33.8834 0.0116257 33.8306 0.00293597 33.7735C-0.00575372 33.7163 0.0049683 33.658 0.0334754 33.6074C0.786945 32.2333 1.4621 30.7976 2.05895 29.3002C2.49918 28.2018 2.71295 26.9964 2.70025 25.6841C2.63252 18.777 2.61771 11.874 2.6558 4.97517C2.66004 4.77771 2.76374 4.67898 2.96693 4.67898L25.7297 4.64195C25.9287 4.64195 26.098 4.57202 26.2377 4.43215L30.5553 0.118807C30.712 -0.037518 30.8707 -0.039575 31.0315 0.112636L33.8634 2.7352C34.0412 2.89975 34.0454 3.06842 33.8761 3.2412L29.7744 7.40027C29.5923 7.58539 29.4061 7.59156 29.2156 7.41878L26.606 5.08624C26.4665 4.96132 26.2825 4.89404 26.0929 4.89865C25.9033 4.90326 25.7229 4.97939 25.5901 5.11093L19.7359 11.0163C19.5496 11.2056 19.3231 11.3002 19.0565 11.3002H9.71641C9.45396 11.3002 9.32274 11.4298 9.32274 11.6889Z" fill="white"/>
</svg>
